<svg width="153" height="30" viewBox="0 0 153 30" fill="none" xmlns="http://www.w3.org/2000/svg">
<path d="M83.4985 1.17477C82.1217 1.28123 81.2132 1.76385 80.1983 2.36002C78.2039 3.52399 77.8349 6.15711 79.3182 8.07339C79.8505 8.76184 80.5177 9.34382 81.1848 9.87612C84.1089 12.2253 87.0756 14.5178 89.9855 16.8883C90.0139 16.9096 90.0352 16.9309 90.0636 16.9593C90.6385 17.5484 90.1772 18.4994 89.3255 18.5136H89.1764C88.8925 18.5065 88.6086 18.2652 88.3247 18.1303C86.3659 17.229 84.4354 16.2353 82.4339 15.4617C79.1479 14.1913 76.7277 16.5334 77.2174 20.437C77.5935 23.3753 79.2117 25.3058 81.3622 26.7323C84.6767 28.9254 88.3318 29.6564 92.0934 29.5642C94.0807 29.5216 96.0963 29.1809 98.0197 28.6202C99.5599 28.1731 100.177 26.633 99.8366 25.2064C99.5669 24.085 98.6514 23.6166 97.0261 23.7869C92.3418 24.2696 87.6576 24.7735 82.9662 25.2206C82.3772 25.2774 81.7171 25.1567 81.1848 24.887C80.0137 24.2979 79.9428 22.7578 81.0641 22.0623C81.6745 21.6861 82.4056 21.4803 83.1011 21.3809C86.7846 20.8344 90.4823 20.3447 94.1659 19.8195C94.6343 19.7556 95.1098 19.6421 95.5569 19.4504C97.7429 18.5207 98.4172 15.4192 96.7564 13.5525C96.1034 12.8215 95.1879 12.3176 94.3078 11.9627C92.1218 11.0756 89.8933 10.3445 87.686 9.54255C85.5781 8.76893 83.4631 8.00952 81.3693 7.18622C80.5957 6.88104 80.1273 6.20679 80.2196 5.21316C80.3047 4.2905 80.8299 3.72272 81.5964 3.56657C81.9726 3.4885 82.4126 3.59496 82.7888 3.74401C86.6214 5.24865 90.4469 6.80297 94.2865 8.29341C95.344 8.70506 96.437 9.10251 97.5371 9.24446C99.0205 9.43608 99.865 8.48504 99.9289 6.80297C99.9715 5.68159 99.8508 4.65957 98.9282 3.87886C98.0055 3.09815 95.4789 2.60843 93.0232 2.1471C85.8052 0.784412 83.5056 1.18896 83.5056 1.18896L83.4985 1.17477Z" fill="black"/>
<path d="M24.9401 10.3022C26.0899 10.3022 27.0267 9.37241 27.0267 8.21554V7.64775C27.0267 3.34676 23.5419 0.00390625 19.2409 0.00390625H7.7929C3.4919 0.00390625 0.00709995 3.48871 0.00709995 7.7897V10.9693C0.00709995 14.958 2.20018 17.1085 6.14631 17.1085H10.8164C11.1996 17.1085 11.5687 16.9666 11.8668 16.7253C12.4701 16.2356 13.2366 15.9446 14.0741 15.9446C16.0116 15.9446 17.5872 17.5202 17.5872 19.4648C17.5872 21.4095 16.0116 22.9851 14.0741 22.9851C12.1365 22.9851 10.5609 21.6295 10.5609 19.6849V19.6636C10.5609 18.7409 9.83693 17.9815 8.91428 17.9815H2.08662C0.936852 17.9815 0 18.9113 0 20.0681V20.5082C0 24.8092 3.4848 28.0739 7.7858 28.0739H19.1487C23.4993 28.0739 27.0267 24.5466 27.0267 20.203V17.2434C27.0267 13.2547 24.8336 11.1042 20.8875 11.1042H17.3459C16.9627 11.1042 16.5865 11.2461 16.2884 11.4874C15.6852 11.9771 14.9115 12.2752 14.0741 12.2752C12.1365 12.2752 10.5609 10.6996 10.5609 8.75494C10.5609 6.81027 12.1365 5.23466 14.0741 5.23466C16.0116 5.23466 17.5872 6.66122 17.5872 8.6059V8.62719C17.5872 9.54275 18.3041 10.2951 19.2196 10.2951H24.9401V10.3022Z" fill="black"/>
<path fill-rule="evenodd" clip-rule="evenodd" d="M124.378 18.5884C124.391 18.5894 124.404 18.5905 124.417 18.5915C125.049 18.6412 125.574 19.3651 125.574 19.9968V27.3709C125.574 28.5491 124.616 29.5001 123.438 29.5001L118.562 29.4788C118.516 29.4765 118.469 29.4735 118.422 29.4704C118.324 29.464 118.225 29.4575 118.129 29.4575C117.688 29.4375 117.214 28.8434 116.852 28.3888C116.83 28.3613 116.809 28.3342 116.788 28.3078C116.137 27.4955 115.501 26.6687 114.865 25.8416C114.023 24.7465 113.18 23.6508 112.302 22.5873C111.742 21.9131 111.032 21.3169 110.287 20.8555C108.2 19.5496 106.532 20.451 106.752 22.9564C106.756 23.0025 106.761 23.0486 106.766 23.0948C106.772 23.1409 106.777 23.187 106.78 23.2332V23.297C106.788 23.3432 106.793 23.3875 106.798 23.4319C106.804 23.4762 106.809 23.5206 106.816 23.5667V23.5951C106.822 23.6696 106.834 23.7386 106.846 23.8117C106.848 23.8222 106.85 23.8328 106.851 23.8435C106.859 23.8648 106.859 23.8861 106.859 23.9073V23.9074C106.866 23.9535 106.873 23.9979 106.88 24.0423C106.887 24.0866 106.894 24.131 106.901 24.1771C106.908 24.1984 106.908 24.2126 106.908 24.2268C106.915 24.2658 106.922 24.3066 106.929 24.3474C106.937 24.3882 106.944 24.4291 106.951 24.4681C106.958 24.4894 106.958 24.5036 106.958 24.5249C106.969 24.571 106.977 24.6154 106.986 24.6597C106.995 24.7041 107.004 24.7484 107.015 24.7946C107.016 24.799 107.018 24.8031 107.019 24.8071C107.024 24.8221 107.029 24.8345 107.029 24.8514C107.036 24.8904 107.045 24.9312 107.054 24.972C107.063 25.0128 107.071 25.0536 107.079 25.0927C107.081 25.0976 107.082 25.0957 107.082 25.0944C107.083 25.0918 107.083 25.0914 107.093 25.1424C107.107 25.2204 107.121 25.2914 107.142 25.3695C107.15 25.3979 107.157 25.4333 107.164 25.4688C107.178 25.5469 107.199 25.632 107.22 25.7171L107.22 25.7172V25.7456C107.249 25.8379 107.27 25.9301 107.291 26.0224L107.291 26.0224C107.291 26.0331 107.295 26.0437 107.299 26.0544C107.302 26.065 107.306 26.0757 107.306 26.0863C107.348 26.2708 107.398 26.4625 107.448 26.647C107.448 26.6576 107.451 26.6683 107.455 26.6789C107.458 26.6896 107.462 26.7002 107.462 26.7109C107.472 26.757 107.485 26.8031 107.497 26.8493C107.51 26.8954 107.522 26.9415 107.533 26.9877C107.54 27.0019 107.54 27.009 107.54 27.0232C107.551 27.0693 107.563 27.1136 107.575 27.158C107.588 27.2024 107.6 27.2467 107.611 27.2928L107.696 27.6122C107.703 27.6264 107.71 27.6406 107.71 27.6548C107.731 27.7329 107.753 27.8181 107.774 27.9032C107.776 27.9089 107.778 27.9141 107.78 27.9189C107.784 27.9321 107.788 27.9425 107.788 27.9529C107.825 28.0985 107.862 28.2441 107.899 28.39C107.992 28.7563 108.085 29.1246 108.172 29.5001C107.871 29.5001 107.566 29.5077 107.258 29.5153C107.05 29.5205 106.841 29.5256 106.631 29.5285H106.61H106.39H106.34H106.241H106.206H104.083C103.487 29.5285 103.012 29.0459 103.012 28.4568V27.9529C102.983 24.6829 103.012 21.4097 103.04 18.1376C103.054 16.5023 103.069 14.8672 103.076 13.233V11.8774V11.409V10.5147V9.96821V9.15202V7.77513V7.17185V6.34146V5.66012V4.58132V3.69415V3.14056V3.01281V2.99861C103.076 2.31726 103.629 1.76367 104.311 1.76367H119.336C122.657 1.76367 125.347 4.45357 125.347 7.77513V13.1478C125.347 13.744 124.872 14.2337 124.275 14.2479H124.133H123.942H123.892H123.658H123.608H123.388H123.353C123.275 14.255 123.197 14.255 123.119 14.255H123.119H123.076C123.012 14.2621 122.941 14.2621 122.877 14.2621H122.813C122.735 14.2692 122.657 14.2692 122.579 14.2692H122.579V14.2763H122.366H122.288C122.224 14.2834 122.16 14.2905 122.089 14.2905H122.047L122.047 14.2905C121.969 14.2976 121.891 14.3047 121.813 14.3047H121.756L121.756 14.3047C121.692 14.3118 121.628 14.3189 121.564 14.3189H121.507C121.468 14.3189 121.429 14.3224 121.39 14.326C121.351 14.3295 121.312 14.3331 121.273 14.3331H121.231C121.194 14.3331 121.16 14.3368 121.126 14.3405C121.094 14.3439 121.063 14.3473 121.032 14.3473H120.968L120.734 14.3686H120.72C120.681 14.3721 120.643 14.3757 120.606 14.3792C120.569 14.3828 120.532 14.3863 120.493 14.3899H120.429C120.393 14.3934 120.36 14.397 120.326 14.4005C120.292 14.4041 120.258 14.4076 120.223 14.4112H120.187C120.148 14.4147 120.109 14.42 120.07 14.4253C120.031 14.4307 119.992 14.436 119.953 14.4395C119.932 14.4466 119.911 14.4466 119.889 14.4466H119.889C119.857 14.4502 119.825 14.4555 119.793 14.4608C119.762 14.4662 119.73 14.4715 119.698 14.475C119.676 14.4821 119.662 14.4821 119.641 14.4821H119.641C119.602 14.4892 119.563 14.4945 119.524 14.4999C119.485 14.5052 119.446 14.5105 119.407 14.5176C119.392 14.5247 119.371 14.5247 119.357 14.5247C119.286 14.5318 119.222 14.5389 119.158 14.5531C119.13 14.5602 119.13 14.5602 119.059 14.5744C119.023 14.5815 118.99 14.5868 118.956 14.5921C118.922 14.5975 118.889 14.6028 118.853 14.6099H118.839C118.803 14.617 118.766 14.6241 118.729 14.6312C118.692 14.6383 118.654 14.6454 118.619 14.6525C118.598 14.6596 118.576 14.6667 118.555 14.6667C118.491 14.6808 118.42 14.695 118.349 14.7092L118.349 14.7092H118.314C118.236 14.7234 118.158 14.7376 118.079 14.7589L118.079 14.7589C118.058 14.766 118.037 14.7731 118.016 14.7731L117.824 14.8157C117.819 14.8172 117.815 14.8187 117.811 14.8201C117.796 14.8255 117.784 14.8299 117.767 14.8299L117.533 14.8938C117.519 14.9009 117.497 14.908 117.483 14.908L117.483 14.908C117.419 14.9222 117.355 14.9364 117.292 14.9577C117.285 14.96 117.277 14.9632 117.27 14.9663C117.256 14.9726 117.242 14.9789 117.228 14.9789C117.179 14.991 117.133 15.0054 117.088 15.0195C117.054 15.0302 117.02 15.0407 116.986 15.0499C116.984 15.0499 116.989 15.0475 116.994 15.0452C117.003 15.0405 117.012 15.0357 116.965 15.0499L116.752 15.1138L116.752 15.1138C116.724 15.1209 116.695 15.128 116.674 15.1351C116.639 15.1457 116.603 15.1582 116.568 15.1706C116.532 15.183 116.497 15.1954 116.461 15.2061C116.454 15.2132 116.44 15.2132 116.433 15.2132L116.199 15.2983L116.135 15.3196L116.135 15.3197C116.071 15.3409 116.007 15.3622 115.943 15.3906C115.94 15.3923 115.936 15.3943 115.932 15.3965C115.919 15.4036 115.904 15.4119 115.893 15.4119C115.854 15.4261 115.815 15.442 115.776 15.458C115.737 15.474 115.698 15.49 115.659 15.5041C115.652 15.5112 115.645 15.5112 115.638 15.5112C114.609 15.9371 114.616 17.4346 115.652 17.8321C115.737 17.8604 115.815 17.8888 115.893 17.9171L115.893 17.9172C115.907 17.9206 115.915 17.9239 115.926 17.9279C115.938 17.9325 115.952 17.9381 115.979 17.9456C116.003 17.9527 116.03 17.9616 116.057 17.9705C116.083 17.9793 116.11 17.9882 116.135 17.9953C116.146 17.9982 116.157 18.0023 116.167 18.0062C116.181 18.0117 116.193 18.0166 116.206 18.0166C116.254 18.0287 116.3 18.0431 116.345 18.0571C116.38 18.0678 116.413 18.0784 116.447 18.0876C116.458 18.0876 116.467 18.0911 116.475 18.0947C116.484 18.0982 116.493 18.1018 116.504 18.1018C116.521 18.1068 116.537 18.1118 116.553 18.1167C116.605 18.1327 116.654 18.1477 116.703 18.1586C116.707 18.16 116.711 18.1615 116.715 18.1629C116.73 18.1683 116.742 18.1728 116.759 18.1728C116.797 18.1821 116.833 18.19 116.868 18.1978C116.913 18.2078 116.957 18.2176 117.001 18.2295C117.006 18.2313 117.007 18.2318 117.007 18.2316C117.008 18.2312 116.997 18.2261 117.05 18.2366C117.121 18.2508 117.185 18.265 117.249 18.2792C117.27 18.2863 117.299 18.2934 117.32 18.2934C117.388 18.3119 117.461 18.325 117.53 18.3374C117.541 18.3393 117.551 18.3412 117.561 18.3431H117.583C117.621 18.3507 117.659 18.3563 117.699 18.3621C117.732 18.367 117.767 18.372 117.803 18.3786C117.824 18.3857 117.845 18.3857 117.867 18.3857H117.867C117.937 18.3999 118.016 18.4141 118.087 18.4212H118.115C118.154 18.4247 118.195 18.43 118.236 18.4354C118.276 18.4407 118.317 18.446 118.356 18.4495C118.378 18.4566 118.399 18.4566 118.42 18.4566H118.42C118.44 18.4589 118.461 18.4618 118.482 18.4648C118.528 18.4713 118.575 18.4779 118.619 18.4779C118.624 18.4779 118.621 18.4771 118.619 18.4764C118.614 18.4748 118.609 18.4732 118.661 18.4779C118.69 18.4805 118.717 18.484 118.743 18.4874C118.791 18.4934 118.836 18.4992 118.881 18.4992C118.91 18.5063 118.945 18.5063 118.974 18.5063H118.974C119.038 18.5134 119.109 18.5205 119.172 18.5205H119.229C119.307 18.5276 119.392 18.5347 119.471 18.5347H119.513C119.584 18.5489 119.648 18.5489 119.719 18.5489H119.719H119.783C119.861 18.556 119.946 18.556 120.024 18.556H120.031C120.109 18.5631 120.187 18.5631 120.265 18.5631H120.265H120.329H120.542H120.571H120.819H120.904H121.053H121.138H121.38H121.436H121.642H121.713H121.877H121.962H122.182H122.253H122.501H122.742H122.806H123.019H123.062H123.303H123.367H123.566H123.622C123.701 18.5702 123.786 18.5702 123.864 18.5702H123.913C123.977 18.5773 124.048 18.5773 124.112 18.5773H124.112H124.176C124.242 18.5773 124.308 18.5826 124.378 18.5884ZM118.626 7.13821C119.137 8.25374 117.231 10.2202 114.369 11.5305C111.507 12.8408 108.773 12.9987 108.263 11.8831C107.752 10.7676 109.658 8.80109 112.52 7.49082C115.382 6.18055 118.116 6.02268 118.626 7.13821Z" fill="black"/>
<path d="M51.6174 18.1157C51.4187 18.2009 49.9283 19.741 49.9283 19.741L48.814 20.7701C47.7849 21.7211 46.9119 22.4664 46.2235 22.9703C45.8473 23.2471 45.5208 23.46 45.2582 23.5877C44.9885 23.7226 44.8821 23.7368 44.8821 23.7368C44.7472 23.7368 44.7259 23.7084 44.7046 23.68C44.662 23.6232 44.5698 23.4458 44.5698 22.9845C44.5698 22.5231 44.6549 22.0689 45.0524 20.8695L45.0666 20.8198C45.4144 19.7836 45.9396 18.506 46.628 17.0369C47.2455 15.7168 48.0049 14.2405 48.885 12.6507L49.4244 11.6855C50.489 9.78339 51.2129 8.45619 51.5749 7.73936C51.9865 6.91606 52.1923 6.24891 52.1923 5.70241C52.1923 4.78686 52.0859 4.08422 51.8659 3.54482C51.5678 2.7996 51.1277 2.42344 50.567 2.42344C50.0063 2.42344 49.9567 2.54409 49.6515 2.7783C49.4315 2.94864 49.2114 3.18285 48.9701 3.49514C48.5585 4.02744 47.6216 5.32626 46.1028 7.47675C44.7117 9.41433 43.6329 10.8906 42.8096 11.9978C41.9438 13.1617 40.9856 14.3896 39.9494 15.6529C38.9203 16.9091 37.8344 18.137 36.7201 19.3009C35.762 20.323 35.1374 20.9688 34.8464 21.2385C34.7754 21.3095 34.7044 21.3592 34.6406 21.3947C34.6548 21.2172 34.7186 20.9333 34.9316 20.5075C35.109 20.1668 35.549 19.3435 36.6633 17.3421C36.9898 16.7388 37.3092 16.1781 37.6286 15.6671C37.9337 15.1703 38.3312 14.5457 38.8351 13.7579L38.8493 13.7366C39.3461 12.963 39.8358 12.1752 40.3043 11.3874C40.7798 10.5925 41.1488 9.93953 41.4044 9.46401C42.0928 8.21488 42.5754 7.22834 42.8664 6.45473C43.1858 5.61724 43.3348 4.49586 43.3348 3.03381C43.2497 2.03308 43.1006 1.59305 42.6393 1.1814C42.1922 0.783948 41.525 0.578125 40.6591 0.578125C39.7933 0.578125 38.466 0.798142 36.9827 1.24528C35.5419 1.68531 34.1225 2.31698 32.7456 3.13317C31.4113 3.92808 30.3254 4.85783 29.5234 5.90114L29.4098 6.05018C29.0337 6.63217 28.7782 7.04381 28.3949 7.85291C28.0258 8.63362 27.7278 9.40014 27.5006 10.117L27.451 10.266C27.238 10.9616 27.1387 11.4655 27.1387 11.8203C27.1387 12.1752 27.3587 12.6436 27.5503 12.8282C27.8271 13.105 28.1962 13.254 28.6078 13.254C29.0195 13.254 29.1969 13.1901 29.5944 13.0482C29.935 12.9275 30.3325 12.7572 30.8009 12.5301C31.7165 12.0829 32.6675 11.4868 33.6115 10.7628C34.8109 9.83307 35.7974 9.11624 36.5498 8.61943C37.2169 8.17939 37.7634 7.84582 38.1964 7.6329C38.0686 7.86711 37.8983 8.13681 37.7066 8.44199C37.0679 9.44272 35.9323 11.1319 34.3425 13.4669C33.3347 14.9361 32.4688 16.3059 31.7803 17.5408C31.0848 18.7828 30.5525 19.8971 30.1976 20.8553C29.8357 21.8418 29.6511 22.729 29.6511 23.4955C29.6511 24.7233 29.8924 25.6673 30.3893 26.377C31.0777 27.3635 31.9436 27.5765 32.5469 27.5765C33.1501 27.5765 33.6115 27.4203 34.0728 27.1151C34.4702 26.8525 34.8464 26.5048 35.2367 26.0576C35.5774 25.6673 35.9465 25.2343 36.351 24.7659C38.0899 22.807 39.7933 20.7701 41.4114 18.6977C41.6811 18.3499 41.965 17.995 42.2489 17.6189C42.0218 18.1015 41.8089 18.5557 41.6244 18.9887C40.574 21.3876 40.063 23.2045 40.063 24.5601C40.063 25.9157 40.3114 26.6609 40.8224 27.3139C41.2056 27.7965 41.9367 28.3714 43.2568 28.3714C44.1439 28.3714 45.173 27.8603 46.408 26.8099C47.5081 25.8731 48.8069 24.4749 50.2831 22.6509L50.5032 22.3812C52.604 19.9113 51.8091 18.066 51.6103 18.1583L51.6174 18.1157Z" fill="black"/>
<path fill-rule="evenodd" clip-rule="evenodd" d="M67.1528 0.663764C72.3552 0.315994 75.7193 3.62336 76.7485 8.08759L76.7414 8.0734C77.444 11.1253 77.1885 14.1629 75.8258 17.0303C74.9173 18.9465 73.4766 20.2808 71.3403 20.7635C69.9137 21.0899 68.5723 20.8415 67.2593 20.2738C67.104 20.2064 66.9499 20.1353 66.7956 20.0642C66.576 19.963 66.3559 19.8615 66.1308 19.7698C64.9739 19.2943 64.2997 19.7344 64.2216 20.9977C64.1294 22.4881 64.4488 23.9218 64.8249 25.3413C64.9669 25.8878 65.0804 26.2994 65.272 26.9737C65.3262 27.1643 65.5138 27.3539 65.6858 27.5277C66.1221 27.9685 66.4581 28.308 64.2642 28.308C63.2443 28.308 62.2615 28.3064 61.2789 28.3048C59.3145 28.3016 57.3511 28.2985 55.0944 28.308C54.4273 28.308 53.9589 27.5485 54.0582 27.0517C54.1572 26.5568 54.2562 26.069 54.3552 25.5811L54.3563 25.5755C54.7822 23.4179 55.0235 21.239 55.1583 19.0459C55.3712 15.6747 55.3712 12.2963 55.0873 8.92508C55.0388 8.34677 54.9999 7.79406 54.962 7.25635C54.8285 5.35899 54.7081 3.64823 54.2215 1.65739C54.1292 1.28833 54.2144 1.21026 54.5692 1.25994C56.7904 1.57515 58.8476 1.38112 60.9731 1.18064C61.9106 1.09222 62.8614 1.00254 63.8455 0.954754C64.4405 0.92424 65.0335 0.862978 65.6255 0.801814C66.1351 0.749168 66.644 0.696595 67.1528 0.663764ZM66.9847 6.96066C68.0786 7.70124 67.9106 9.85929 66.6097 11.7808C65.3087 13.7023 63.3674 14.6596 62.2735 13.9191C61.1797 13.1785 61.3476 11.0204 62.6486 9.09892C63.9495 7.17741 65.8909 6.22008 66.9847 6.96066Z" fill="black"/>
<path d="M127.574 1.32494H139.498V4.50023H132.507V5.91163H139.498V9.08692H132.507V13.6736H127.574V1.32422V1.32494Z" fill="black"/>
<path d="M140.562 1.32494H152.202V4.50023H144.998V5.91163H152.202V9.08692H144.998V10.4983H152.202V13.6736H140.562V1.32422V1.32494Z" fill="black"/>
<path d="M144.258 19.4038H140.562V16.2285H152.202V19.4038H148.507V28.5779H144.258V19.4038Z" fill="black"/>
<path d="M127.219 25.4026H137.83C138.501 25.4026 138.781 25.1556 138.781 24.7323C138.781 24.2383 138.502 23.9912 137.811 23.9912H131.379C128.991 23.9912 127.219 22.6325 127.219 20.0922C127.219 17.5518 128.991 16.2285 131.379 16.2285H139.587V19.4038H132.238C131.734 19.4038 131.305 19.5801 131.305 20.1095C131.305 20.639 131.734 20.8152 132.238 20.8152H138.744C141.244 20.8152 142.904 22.1558 142.904 24.6261C142.904 27.0964 141.244 28.5779 138.744 28.5779H127.219V25.4026H127.219Z" fill="black"/>
</svg>
